<?xml version="1.0" encoding="utf-8"?>
<!-- Generator: Adobe Illustrator 26.0.3, SVG Export Plug-In . SVG Version: 6.00 Build 0)  -->
<svg version="1.1" id="Capa_1" xmlns="http://www.w3.org/2000/svg" xmlns:xlink="http://www.w3.org/1999/xlink" x="0px" y="0px"
	 viewBox="0 0 512 512" style="enable-background:new 0 0 512 512;" xml:space="preserve">
<style type="text/css">
	.st0{fill:#2B5E29;}
</style>
<g>
	<path class="st0" d="M50.2,320.7c-0.4-5.7-2.9-11.1-3.3-16.8c-1.7-24.9,6.7-44.3,26.5-57.2c14.2-9.2,28.8-17.6,43.3-26.3
		c5-3,8.4-2,11.4,3.5c17.4,31.3,34.8,62.6,52.2,93.9c3.2,5.7,2.3,9-3,12.3c-13.9,8.5-27.8,17-41.8,25.2c-23.9,14-51.8,9-71.5-12.5
		c-0.9-1-1.3-2.8-3-2.6C57.5,333.6,53.9,327.1,50.2,320.7z"/>
	<path class="st0" d="M457.4,91c0,5-2.4,7.9-6.4,10.2c-20.1,11.9-40.1,24.1-60.1,36.1c-5.2,3.1-8.5,2.6-11.1-1.6
		c-2.7-4.4-1.8-8.4,2.8-11.2c12.1-7.4,24.2-14.6,36.3-21.9c8.5-5.1,17-10,25.3-15.4c3.7-2.3,7.1-2.9,10.9-0.5
		C455.8,88.2,456.6,89.6,457.4,91z"/>
	<path class="st0" d="M294.8,186.2c-18.7-33.7-37.6-67.4-56.2-101.1c-10.8-19.5-7.5-42.7,7.5-55.5c19.5-16.7,46.8-11.5,61.1,11.6
		c0.6,1,1.1,1.9,1.7,2.9c37,66.6,74.1,133.1,111.1,199.7c10.4,18.7,8.8,39.2-4.1,53.5c-17.6,19.5-49.4,16.2-63.1-7.6
		C333,255.5,314.1,220.7,294.8,186.2C294.9,186.2,294.9,186.2,294.8,186.2z"/>
	<path class="st0" d="M282.4,193.7c18.5,33.3,37,66.6,55.6,99.8c2.1,3.7,1.5,4.5-2.2,5.2c-45,8.7-90.1,17.5-135,26.5
		c-3.1,0.6-4.2,0.4-4.1-3.4c0.1-3.7-1.3-7.2-3.2-10.6c-17.8-32-35.6-64-53.4-96c-1.8-3.3-4.1-6.4-7.3-8c-3.6-1.8-3.1-3.2-0.9-5.8
		c20-24.1,40-48.2,59.9-72.4c9.7-11.8,19.4-23.6,29.1-35.4c3.5-4.2,3.5-4.2,6.4,1C245.7,127.7,264.1,160.7,282.4,193.7z"/>
	<path class="st0" d="M212.8,447.4c-6.7-12.1-13.3-24.3-20.3-36.3c-2-3.4-1.3-4.7,1.6-6.5c15.5-9.1,30.8-18.4,46.1-27.8
		c3.1-1.9,4.5-1.9,6.5,1.8c9,16.6,18.3,33,27.4,49.5c1.1,2,1.7,3.6,4.7,2.4c10.2-3.9,21.8,1.2,26.5,11.3c5.1,10.8,2.3,23.6-7.2,29.7
		c-11.9,7.6-24,15-36.3,21.9c-10.3,5.8-22.5,1.5-28.9-9.7C226.2,471.7,219.5,459.5,212.8,447.4z"/>
	<path class="st0" d="M209.6,377.4c-9.2,5.6-18.5,11.2-27.8,16.7c-13.1,7.7-27.1,3.5-35-10.5c-1.8-3.2-3.4-6.6-5.5-9.7
		c-1.7-2.6-1-3.7,1.3-5.1c12.7-7.5,25.3-15.2,37.9-22.8c1.5-0.9,3-1.4,4.6-1.8c20.3-4,40.6-7.9,60.8-12.1c3.7-0.8,4.5,0.5,4.6,3.9
		c0.3,10.3-3.3,18.4-11.7,23.6C229.2,365.7,219.4,371.5,209.6,377.4z"/>
	<path class="st0" d="M375.8,116.4c-2.6,1-5.4,0.4-8-2c-2.7-2.5-3.3-5.6-1.8-8.8c2-4.1,4.2-8,6.3-12.1c9.8-18.6,19.6-37.1,29.4-55.7
		c2.5-4.7,5.4-6,9.2-4.5c4.7,1.9,6.4,6.9,3.7,11.9c-7.5,14.4-15.2,28.8-22.8,43.2c-4.1,7.8-8.2,15.5-12.3,23.3
		C378.8,113.4,378,115.2,375.8,116.4z"/>
	<path class="st0" d="M394,147c1.5-0.9,3.2-1,4.8-1c24.1,0.5,48.2,0.9,72.4,1.4c5.1,0.1,8.2,3,8.7,7.5c0.5,4.8-2.5,7.9-8,7.8
		c-11.5-0.1-23.1-0.4-34.6-0.6c-13-0.2-26.1-0.4-39.1-0.7c-3.7-0.1-6.5-1.8-7.4-6C389.9,151.8,390.9,148.9,394,147z"/>
	<path class="st0" d="M278,381.1c-0.1,0.1-0.3,0.2-0.4,0.2c-10,6-9.9,6-15.7-4.9c-1.2-2.2-1.1-3.2,1-4.4c3.9-2.1,7.6-4.5,11.3-6.8
		c13.2-8,19.1-22.5,15.2-38.3c-0.7-2.9-0.1-3.6,2.3-3.9c1.2-0.1,2.4-0.5,3.5-0.7c8.5-1.7,8.7-1.7,9.6,7.8c2,20.7-5.3,36.5-21.5,47.5
		C281.7,379,279.8,380,278,381.1C278,381.1,278,381.1,278,381.1z"/>
	<path class="st0" d="M237.9,211.7c8.2-4.9,16.4-9.9,24.6-14.8c4.9-2.9,8.5-2.1,10.9,2.3c2.4,4.4,1.3,8.1-3.6,11.1
		c-16.2,9.9-32.5,19.7-48.8,29.4c-5,3-8.7,2.2-11.1-2c-2.5-4.4-1.2-8.4,3.8-11.4C221.7,221.5,229.8,216.6,237.9,211.7z"/>
	<path class="st0" d="M189.3,259.4c-2.9,1.7-5.8,3.4-9,4.4c-3.7,1.1-6.6,0-8.5-3.7c-1.9-3.6-1-6.7,1.7-9c4.5-4.1,9.8-6.8,15.1-9.3
		c3.2-1.5,6,0,7.8,3.1c2,3.4,2.4,6.8-0.5,9.6C193.9,256.4,191.5,257.8,189.3,259.4z"/>
</g>
</svg>
