<?xml version="1.0" encoding="utf-8"?>
<!-- Generator: Adobe Illustrator 26.0.3, SVG Export Plug-In . SVG Version: 6.00 Build 0)  -->
<svg version="1.1" id="Capa_1" xmlns="http://www.w3.org/2000/svg" xmlns:xlink="http://www.w3.org/1999/xlink" x="0px" y="0px"
	 viewBox="0 0 512 512" style="enable-background:new 0 0 512 512;" xml:space="preserve">
<style type="text/css">
	.st0{fill:#2B5E29;}
</style>
<g>
	<path class="st0" d="M144.1,244.5c30.1,52.7,67.2,101.1,105.3,148.8c3.6,4.5,7.3,4.2,11.2-0.8c18-22.9,36.1-45.8,53.2-69.5
		c25.5-35.3,49.9-71.1,68-110.4c11.2-24.4,17.2-49.2,12.1-76.1C381,68.1,310.6,19.3,236.7,28.6c-69.8,8.8-121.6,63.1-123.1,130.2
		c-0.3,7.1,0.9,15.1,3,23C122.5,204,132.6,224.6,144.1,244.5z M188.8,103.7c35.6-36.3,94.5-36.8,130.7-1.2
		c35.3,34.6,31.5,88-2.4,117.8c-3.5-10.8-8.9-20.4-17.5-28.2c-0.5-0.5-1-0.9-1.5-1.4c-8.2-7.2-8.1-7-17.9-2.3
		c-18.9,9.2-37.5,8.3-55.3-2.6c-2.8-1.7-4.5-1.8-7.1,0c-11.5,7.9-19.5,18.2-24.1,30.8c-0.4,1.2-0.9,2.4-1.3,3.7
		C159.9,191.9,153.9,139.3,188.8,103.7z"/>
	<path class="st0" d="M397.8,435.2c3.8,0,5-0.4,4.2-4.4c-3.6-18.8-6.9-37.7-10.1-56.6c-0.5-3.1-1.7-3.8-4.8-3.8
		c-26.4,0.1-52.8,0.1-79.2,0c-2.9,0-4.7,0.8-6.4,3c-7.9,10.4-16,20.7-24.1,31c-12.5,15.8-32.7,16-45.3,0.4
		c-8.3-10.3-16.5-20.8-24.6-31.3c-1.7-2.2-3.4-3.1-6.3-3.1c-26.9,0.1-53.9,0.2-80.8,0c-3.6,0-4.6,1.2-5.1,4.1
		c-3.3,19.2-6.6,38.4-10.2,57.6c-0.6,3.1,0.7,3.2,3.1,3.1c4.7-0.1,9.3-0.1,14,0c8.9,0.1,12.6,3.6,12.7,11.9c0.1,9.6,0.1,19.2,0,28.7
		c-0.1,2.9,0.6,3.9,4,3.9c13.3-0.2,26.6-0.2,39.9,0c2.9,0,3.8-0.7,3.8-3.5c-0.2-9.1-0.1-18.2-0.1-27.3c0-10.4,3.4-13.7,14.5-13.7
		c33.1,0,66.3,0,99.4,0C330.1,435.1,364,435.1,397.8,435.2z"/>
	<path class="st0" d="M491.3,466.5c-0.5-2.2-1.2-4.4-1.6-6.6c-0.6-3.5-2.2-4.8-6.4-4.8c-45.7,0.2-91.4,0.1-137.1,0.1
		c-38.5,0-76.9,0-115.4,0c-7.8,0-15.5,0.2-23.3-0.1c-3.3-0.1-4.1,0.9-3.9,3.8c0.3,5.2,0.4,10.4,0,15.6c-0.4,4.5,1.3,5.2,5.7,5.2
		c88.7-0.1,177.3-0.1,266-0.1c1.9,0,3.8,0.1,5.7,0C488.7,479.1,492.9,473.7,491.3,466.5z"/>
	<path class="st0" d="M423.5,431.8c0.5,2.7,1.5,3.5,4.2,3.4c8.6-0.1,17.2,0,25.9,0c8.6,0,17.2-0.1,25.9,0.1c3.2,0.1,3.8-1,3.1-3.7
		c-9.6-37.4-19.1-74.9-28.7-112.3c-1.6-6-4.8-8.4-11.4-8.5c-11.4-0.1-22.8,0.2-34.1-0.1c-5-0.2-6.3,0.8-5.4,5.7
		C409.9,354.8,416.7,393.3,423.5,431.8z"/>
	<path class="st0" d="M31,435.2c7.9-0.2,15.9-0.1,23.8-0.1c8.1,0,16.2-0.1,24.3,0.1c3.2,0.1,4.4-0.8,4.9-3.9
		c2.4-14.7,5.2-29.4,7.8-44.1c4.3-24,8.4-47.9,12.8-71.9c0.6-3.5,0.2-4.8-4.1-4.7c-10.7,0.3-21.4,0.1-32.1,0.1
		c-8,0-10.8,2.1-12.7,9.3c-2.5,9.6-4.9,19.2-7.4,28.8c-7,27.4-13.9,54.8-21,82.1C26.2,434.6,27.3,435.3,31,435.2z"/>
	<path class="st0" d="M109.7,455.1c-14.2,0.2-28.3,0.1-42.5,0.1c-11.4,0-22.8,0-34.2,0c-12.2,0-12.2,0-14.8,11.2
		c-1.7,7.5,2.6,13.1,10.7,13.2c27.3,0.1,54.6,0,81.8,0.1c2.5,0,3.2-0.7,3.2-3c-0.1-5.8-0.3-11.7,0-17.5
		C114.1,455.8,113,455,109.7,455.1z"/>
	<path class="st0" d="M158.6,310.7c-9.7,0.1-19.3,0-29,0c-1.5,0-3-0.2-3.3,2c-2,11.7-4.1,23.3-6.2,35c-0.4,2.1,0.3,2.9,2.6,2.9
		c22.1-0.1,44.1,0,67.1,0c-9.4-13.1-18.2-25.4-27-37.8C161.7,311.2,160.5,310.7,158.6,310.7z"/>
	<path class="st0" d="M377.9,310.7c-4.3,0.1-8.7,0.6-12.9-0.1c-12.9-2.2-20.9,2.7-26.9,13.5c-5,9.1-12.1,17.1-18.3,25.5
		c0.4,0.4,0.5,0.7,0.6,0.7c21.5,0.1,43.1,0.1,64.6,0.3c2.8,0,2.5-1.5,2.2-3.2c-2-11.3-4.1-22.7-6-34
		C380.8,311.3,379.9,310.7,377.9,310.7z"/>
	<path class="st0" d="M254.5,174.7c18.3,0.1,33-13.4,33.1-30.5c0.2-16.7-15-31-32.8-31c-17.9,0-33,14.2-32.8,30.9
		C222.1,161.1,236.6,174.6,254.5,174.7z"/>
</g>
</svg>
