<?xml version="1.0" encoding="utf-8"?>
<!-- Generator: Adobe Illustrator 26.0.3, SVG Export Plug-In . SVG Version: 6.00 Build 0)  -->
<svg version="1.1" id="Capa_1" xmlns="http://www.w3.org/2000/svg" xmlns:xlink="http://www.w3.org/1999/xlink" x="0px" y="0px"
	 viewBox="0 0 512 512" style="enable-background:new 0 0 512 512;" xml:space="preserve">
<style type="text/css">
	.st0{fill:#2B5E29;}
</style>
<g>
	<path class="st0" d="M491.5,333.6c-3.1,4.7-7.6,6.2-13,5.8c-3.7-0.3-7.3,0.1-11-0.1c-3.1-0.1-4.3,1.2-4.4,4.3
		c-0.8,13.4-1.7,26.8-2.6,40.3c-1.5,22.4-2.9,44.8-4.4,67.3c-0.6,9.6-0.9,19.2-1.9,28.8c-0.7,7.2-4.1,10-11.2,10
		c-36.6,0-73.2,0-109.7,0c-7.5,0-11.1-3.4-11.7-11.2c-0.8-10.4-1.3-20.7-2-31.1c-1.8-28.1-3.6-56.1-5.3-84.2
		c-0.4-6.3-1.1-12.5-1-18.8c0-4.4-1.7-5.6-5.7-5.3c-4.4,0.3-8.9,0.2-13.3,0c-5.7-0.2-9.5-3.8-9.8-8.9c-0.3-4.9,3-8.9,8.2-10
		c1.6-0.3,3.3-0.5,5-0.5c60.1,0,120.3,0,180.4,0c5.5,0,10.3,1.3,13.4,6.4C491.5,328.7,491.5,331.2,491.5,333.6z"/>
	<path class="st0" d="M170.9,19.6c7.6,2.4,15,5.2,21.3,10.4c24.8,20.6,23.1,58.2-3.7,76c-15.1,10-31.3,11.3-47.5,2.8
		c-17-8.9-26-23.4-26.2-42.6c-0.2-20.3,14.3-39.1,33.8-44.9c1.9-0.6,3.8-1.1,5.7-1.6C159.9,19.6,165.4,19.6,170.9,19.6z"/>
	<path class="st0" d="M491.5,34.3c-8.3,22.4-24,38.8-43.2,52.1c-1.1,0.8-2.3,1.7-3.5,2.1c-8,2.2-10.2,8-11,15.7
		c-1,9.6-4.5,18.5-12.8,24.4c-4.2,3-9.1,4.4-14.3,4.1c-5-0.3-8.6-3.6-9.3-8.5c-0.7-4.7,2.1-8.8,7-10.4c7.4-2.4,12.7-12.1,10.7-19.5
		c-0.6-2.2-2.5-2.5-4.1-3.3c-20.4-11.2-36.3-26.8-47.2-47.4c-1.9-3.6-3.4-7.5-4-11.7c-0.7-5.1,0.3-9.4,4.9-12.3c3.4,0,6.7,0,10.1,0
		c3.1,1.3,6.2,2.5,9.2,4c15.7,8,28.1,19.9,38.7,33.8c2.1,2.7,3.2,3.3,5.6,0.2c12.9-16.8,28.1-30.6,48.4-38c4.3,0,8.6,0.1,12.9-0.1
		c1.6-0.1,1.9,0.3,1.9,1.9C491.4,25.7,491.5,30,491.5,34.3z"/>
	<path class="st0" d="M104.7,246.1c-0.8,1.4-1.6,2.9-2.3,4.3c-9,18.1-17.9,36.2-27.1,54.2c-9.9,19.4-34.8,21.9-48.4,4.9
		c-6-7.5-7.1-16.1-4.6-25.2c0.9-3.2,2.3-6.3,3.8-9.3c20.6-41.2,41.4-82.3,61.7-123.6c6.5-13.2,16.5-19.6,30.9-19.7
		c32.1,0,64.3,0,96.4,0c9.3,0,17.6,2.8,24.9,9c10.1,8.6,20.8,16.6,31.1,25.1c3,2.5,6.1,3.6,10,3.6c21.4-0.1,42.9-0.1,64.3,0
		c6.7,0,13.4,0.6,19.5,4.2c10.5,6.2,16,18.2,13.7,30.2c-2.3,12-12.3,21.2-24.6,22.7c-3.7,0.5-7.3,0.6-11,0.6c-24,0-48.1-0.1-72.1,0
		c-9.9,0.1-18.7-2.4-26.2-9.1c-4-3.6-8.4-6.7-12.5-10.1c-2.2-1.8-3.2-1.3-3.2,1.5c0,1.5,0,3.1,0,4.6c0,80.4,0,160.7,0,241.1
		c0,6.6-0.4,13.1-3.6,19.2c-5.8,11.2-18.1,17.5-30.2,15.4c-12.6-2.2-22-12.2-23.4-24.9c-0.4-3.5-0.6-7-0.6-10.5
		c0-47.6,0-95.2,0-142.8c0-2,0-4-0.3-5.9c-0.4-2.1-1.9-3.1-4-2.9c-1.9,0.1-3.2,1.2-3.5,3c-0.3,1.8-0.2,3.7-0.2,5.5
		c0,49.1,0,98.3,0,147.4c0,15.8-8.6,27.4-22.5,30.8c-16.7,4.1-33.8-8.5-34.7-25.7c-0.1-2.3-0.1-4.6-0.1-6.9c0-68.3,0-136.5,0-204.8
		c0-1.8,0-3.7,0-5.5C105.2,246.4,104.9,246.3,104.7,246.1z"/>
	<path class="st0" d="M425.2,311.4c-15.6-2.2-30.7-4.4-45.9-6.5c-5.7-0.8-11.5-1.8-17.3-2.4c-5.4-0.6-9.3-2.9-12.2-7.7
		c-8.4-14.4-17.1-28.6-25.7-42.9c-2.4-3.9-3.3-8-0.5-12.1c2.7-4.1,6.7-4.6,11.4-4c20.4,3,40.9,5.8,61.3,8.7c4.7,0.7,8.1,2.7,10.6,7
		c8.7,14.8,17.6,29.4,26.4,44.1c2.2,3.7,2.8,7.4,0.3,11.2C431.7,310.2,428.4,311.2,425.2,311.4z"/>
	<path class="st0" d="M322.5,105c-6.6-0.3-13.1,0.5-19.5-0.5c-5.9-0.9-9.2-4.4-9.2-9.6c0-5.2,3.2-9.3,9-9.7c13-0.9,26-1,39,0.1
		c5.7,0.5,9,4.8,8.8,9.9c-0.2,5-3.5,8.4-9.1,9.3C335.2,105.4,328.7,104.6,322.5,105z"/>
	<path class="st0" d="M322.4,56.9c5.7,0,11.3,0,17,0c6.8,0.1,11.1,3.6,11.3,9.4c0.2,5.5-4.2,10-10.8,10.2
		c-9.8,0.3-19.6,0.1-29.4,0.1c-3,0-6.1,0.2-9.1-0.6c-5.1-1.3-8.1-5.4-7.6-10.5c0.5-4.7,4.2-8.3,9.3-8.5
		C309.5,56.8,316,57,322.4,56.9C322.4,57,322.4,56.9,322.4,56.9z"/>
</g>
</svg>
